<svg width="66" height="54" viewBox="0 0 66 54" fill="none" xmlns="http://www.w3.org/2000/svg">
<path d="M13.9812 21.1734C7.11049 22.8094 2 28.9953 2 36.375C2 45.0047 8.98616 52 17.6046 52C19.0823 52 20.5132 51.7938 21.8693 51.4094M52.0204 21.1734C58.8911 22.8094 64 28.9953 64 36.375C64 45.0047 57.0138 52 48.3954 52C46.9177 52 45.4868 51.7938 44.1323 51.4094M51.9346 20.75C51.9346 10.3953 43.5502 2 33.2091 2C22.868 2 14.4836 10.3953 14.4836 20.75M22.3873 33.0641L33.2091 22.1937L44.3383 33.25M33.2091 48.875V27.7219" stroke="#994D1C" stroke-width="4" stroke-linecap="round" stroke-linejoin="round"/>
</svg>
