<svg width="51" height="40" viewBox="0 0 51 40" fill="none" xmlns="http://www.w3.org/2000/svg">
<path d="M41.001 0C42.7037 0.0259838 44.0592 1.33076 44.0918 2.95215C44.0925 2.99062 44.0897 3.02835 44.0859 3.06543V7.35059C44.0908 7.38473 44.095 7.41922 44.0967 7.4541C44.0995 7.51143 44.0945 7.56788 44.0859 7.62305V11.2324H47.7578C48.0188 11.2324 48.2693 11.2482 48.5303 11.2949C49.9327 11.5328 50.9149 12.7543 50.9922 14.0693C50.9966 14.1056 51 14.1421 51 14.1787V37.0449C50.9781 38.3596 50.058 39.5597 48.709 39.8975C48.2358 40.0169 47.7569 39.9961 47.2783 39.9961H10.6943C10.368 39.9961 10.0304 40.012 9.7041 39.9756C8.17027 39.804 7.03329 38.6609 6.91895 37.1904C6.90807 37.0554 6.91405 36.9202 6.91406 36.7852V29.8037H4.06348C3.41087 29.8037 2.70942 29.8607 2.08398 29.6426C0.838279 29.2061 0.0163952 28.1149 0 26.8418V3.16992C1.33164e-05 2.79605 0.016114 2.4169 0.146484 2.05859C0.581686 0.837355 1.74114 0.020787 3.0957 0H41.001ZM9.88086 13.3145C9.83298 13.3311 9.77033 13.3383 9.7207 13.3525C9.69804 13.3587 9.67908 13.3622 9.66406 13.3662C9.63336 13.3812 9.59852 13.3988 9.58984 13.4043C9.57866 13.4114 9.50356 13.4564 9.4541 13.4863C9.44164 13.4972 9.43046 13.5082 9.42188 13.5127C9.38396 13.5445 9.34574 13.576 9.3125 13.6123C9.30166 13.6233 9.29147 13.6322 9.2832 13.6406C9.25115 13.6881 9.19929 13.771 9.19336 13.7783C9.12286 13.8984 9.13065 13.8823 9.14941 13.8447C9.14912 13.8457 9.14873 13.8467 9.14844 13.8477C9.13984 13.8855 9.12987 13.9254 9.11816 13.9639C9.10872 14.0031 9.09795 14.0397 9.0918 14.0654C9.0903 14.0785 9.08984 14.0919 9.08984 14.1064V14.1846C9.0681 15.5823 9.08984 16.9851 9.08984 18.3828V37.0449C9.08986 37.0959 9.09244 37.1226 9.09375 37.1621C9.10649 37.2177 9.12876 37.3133 9.13281 37.3252C9.13871 37.3451 9.14244 37.3623 9.14648 37.376C9.1745 37.4275 9.22113 37.5116 9.25586 37.5664C9.27225 37.5825 9.2897 37.6002 9.2959 37.6113C9.32894 37.6472 9.36177 37.6833 9.39941 37.7148C9.41049 37.7254 9.42328 37.7347 9.43457 37.7451C9.44036 37.7488 9.4471 37.7524 9.4541 37.7568C9.49218 37.7776 9.53615 37.8034 9.57422 37.8242C9.59145 37.8335 9.60505 37.843 9.61719 37.8496C9.6519 37.8602 9.69414 37.8728 9.7041 37.876C9.71589 37.876 9.82223 37.901 9.87988 37.9141C9.89347 37.9155 9.90681 37.918 9.92188 37.918H9.99805C10.9664 37.9336 11.9403 37.918 12.9141 37.918H45.168C46.1234 37.918 47.0788 37.9222 48.0342 37.9121C48.0648 37.9053 48.0947 37.8984 48.127 37.8916C48.1705 37.876 48.2201 37.861 48.2637 37.8506L48.4258 37.7627C48.4057 37.7766 48.3916 37.7902 48.3994 37.7979C48.4051 37.8006 48.4443 37.767 48.4824 37.7324C48.509 37.7179 48.5038 37.7201 48.4863 37.7285C48.5196 37.6982 48.551 37.6685 48.5566 37.6631C48.5917 37.6296 48.621 37.5936 48.6533 37.5615L48.6553 37.5596C48.6847 37.5034 48.7226 37.4298 48.7617 37.374C48.7814 37.311 48.7981 37.2486 48.8184 37.1904C48.8188 37.1889 48.8189 37.187 48.8193 37.1855C48.8215 37.1272 48.8232 37.0543 48.8232 37.0391V14.1787C48.8232 14.1669 48.8253 14.0686 48.8271 14.0098C48.8241 13.9965 48.8215 13.9825 48.8184 13.9707C48.8021 13.9292 48.7853 13.8823 48.7744 13.8408C48.7478 13.7951 48.7163 13.7442 48.6895 13.6982C48.7 13.7121 48.7098 13.7213 48.7148 13.7168C48.7253 13.7019 48.5162 13.5196 48.4746 13.4814C48.4717 13.4799 48.4681 13.4792 48.4648 13.4775C48.4129 13.4527 48.3652 13.4259 48.3174 13.3984C48.3326 13.4039 48.3435 13.4064 48.3447 13.3994C48.3447 13.395 48.3097 13.3847 48.2686 13.373C48.2092 13.3399 48.2226 13.3496 48.2529 13.3672C48.2018 13.353 48.1461 13.3396 48.1377 13.3369C48.1023 13.3294 48.07 13.321 48.0361 13.3135C48.0216 13.312 48.0073 13.3115 47.9912 13.3115H9.93262C9.91533 13.3115 9.89815 13.3134 9.88086 13.3145ZM48.4824 37.7324C48.509 37.7179 48.5038 37.7201 48.4863 37.7285C48.485 37.7298 48.4838 37.7312 48.4824 37.7324ZM48.8174 37.2021C48.81 37.2347 48.8055 37.2639 48.8125 37.2627C48.8164 37.2608 48.8158 37.2354 48.8174 37.2021ZM33.5635 30.7979C34.1727 30.798 34.6242 31.2767 34.6514 31.8379C34.6784 32.399 34.1345 32.8768 33.5635 32.877H29.793C29.184 32.8768 28.7324 32.3989 28.7051 31.8379C28.6779 31.2768 29.2219 30.7981 29.793 30.7979H33.5635ZM41.4678 30.7979C42.077 30.7979 42.5285 31.2767 42.5557 31.8379C42.5827 32.399 42.0388 32.8769 41.4678 32.877H37.6973C37.0883 32.8767 36.6367 32.3989 36.6094 31.8379C36.5822 31.2768 37.1262 30.7981 37.6973 30.7979H41.4678ZM17.7549 30.7461C18.364 30.7462 18.8156 31.225 18.8428 31.7861C18.8696 32.3471 18.3258 32.825 17.7549 32.8252H13.9844C13.3754 32.825 12.9239 32.3471 12.8965 31.7861C12.8693 31.225 13.4133 30.7463 13.9844 30.7461H17.7549ZM25.6592 30.7461C26.2683 30.7462 26.7199 31.225 26.7471 31.7861C26.7739 32.3471 26.2301 32.8251 25.6592 32.8252H21.8887C21.2797 32.825 20.8282 32.3471 20.8008 31.7861C20.7736 31.225 21.3176 30.7463 21.8887 30.7461H25.6592ZM2.19824 21.4004C2.19824 23.1984 2.18736 25.0018 2.19824 26.7998V26.9355C2.19825 26.9476 2.19956 26.9596 2.2002 26.9717C2.21701 27.0407 2.25846 27.1841 2.2627 27.2002C2.29126 27.2502 2.32391 27.3045 2.35352 27.3555C2.33905 27.3365 2.32534 27.3225 2.31738 27.3301C2.31392 27.3336 2.34361 27.3656 2.38477 27.4072C2.40178 27.4359 2.39926 27.4303 2.38965 27.4121C2.43833 27.4611 2.50209 27.5213 2.54883 27.5625C2.51318 27.5391 2.49686 27.5306 2.62207 27.6006C2.62878 27.6038 2.69023 27.6344 2.74023 27.6602C2.74248 27.661 2.7447 27.6622 2.74707 27.6631C2.79045 27.6786 2.8394 27.6937 2.88281 27.7041C2.92105 27.7122 2.95638 27.7204 2.99316 27.7285C3.0459 27.7297 3.09864 27.7305 3.10645 27.7305H6.91406V14.1846C6.91863 13.9052 6.96644 13.6299 7.04883 13.3662C7.10745 13.1507 7.18945 12.9375 7.31152 12.7275C7.53888 12.3328 7.85347 12.0131 8.22266 11.7715C8.5325 11.558 8.88625 11.3987 9.27441 11.3154C9.40113 11.2875 9.5293 11.269 9.6582 11.2559C9.81345 11.2362 9.9707 11.2256 10.1289 11.2256H41.915V8.49609C41.7097 8.49481 41.5042 8.49414 41.2998 8.49414H2.19824V21.4004ZM19.6855 16.9434C20.0445 16.9434 20.393 16.9383 20.752 16.9902C21.8616 17.1565 22.6236 18.1544 22.6455 19.1885V24.0322C22.6139 25.2266 21.6738 26.1566 20.4434 26.252C20.3997 26.2575 20.3558 26.2617 20.3115 26.2617H15.5781C15.0343 26.2617 14.5065 26.22 14.0225 25.9395C13.2773 25.5029 12.8965 24.7387 12.8965 23.9229V19.625C12.8965 19.225 12.8861 18.8304 13.0273 18.4512C13.3755 17.5314 14.2621 16.9538 15.2793 16.9434H19.6855ZM20.3828 24.167C20.3811 24.1689 20.3796 24.171 20.3779 24.1729C20.3791 24.1725 20.3807 24.1732 20.3818 24.1729C20.3838 24.1724 20.3859 24.1713 20.3877 24.1709C20.389 24.1694 20.3911 24.1686 20.3926 24.167C20.3944 24.1644 20.3989 24.1606 20.4043 24.1553C20.4122 24.1515 20.4185 24.1459 20.4248 24.1426C20.4279 24.1376 20.4317 24.1321 20.4355 24.126V24.125C20.4375 24.1219 20.4402 24.1187 20.4424 24.1152C20.4475 24.1077 20.4529 24.102 20.457 24.0967C20.4602 24.0887 20.4625 24.0805 20.4648 24.0723C20.4663 24.0586 20.4687 24.0439 20.4688 24.0322V19.1475C20.4664 19.1354 20.4616 19.1248 20.46 19.1162C20.453 19.1056 20.4474 19.0932 20.4404 19.083C20.4322 19.0754 20.4211 19.0655 20.4102 19.0547C20.4067 19.0526 20.4024 19.0512 20.3984 19.0488C20.3945 19.0465 20.3912 19.0431 20.3877 19.041C20.3825 19.0394 20.3771 19.0388 20.3721 19.0371C20.3739 19.0364 20.3752 19.035 20.377 19.0342C20.3169 18.9986 20.3332 19.0108 20.3682 19.0283C20.3624 19.0285 20.3562 19.0306 20.3496 19.0303C20.3384 19.0264 20.3284 19.0248 20.3223 19.0225C20.254 18.9999 20.2504 19.0135 20.2734 19.0273H15.2363C15.2345 19.0273 15.2322 19.0264 15.2305 19.0264C15.2262 19.0272 15.222 19.0285 15.2178 19.0293C15.2184 19.0285 15.2174 19.0272 15.2178 19.0264C15.1275 19.0241 15.1552 19.0268 15.2021 19.0254C15.1948 19.0292 15.1853 19.0332 15.1758 19.0391C15.1693 19.0402 15.1641 19.0422 15.1602 19.043C15.1573 19.0436 15.154 19.0443 15.1514 19.0449C15.1504 19.0459 15.1494 19.0478 15.1484 19.0488C15.1471 19.05 15.1435 19.0532 15.1387 19.0576H15.1416C15.1397 19.0588 15.1376 19.0594 15.1357 19.0605C15.1284 19.0673 15.1196 19.0773 15.1094 19.0869C15.13 19.049 15.1397 19.0216 15.1025 19.0947C15.0973 19.0997 15.0919 19.1045 15.0869 19.1094C15.0859 19.1129 15.0859 19.1167 15.085 19.1201C15.0828 19.1151 15.0817 19.1096 15.0781 19.1055C15.0805 19.1078 15.0785 19.1126 15.0791 19.1182C15.063 19.1343 15.0489 19.1457 15.0508 19.1475C15.056 19.1542 15.0627 19.1498 15.0713 19.1416C15.0735 19.1356 15.0764 19.1291 15.0791 19.1221C15.0793 19.1255 15.0812 19.1289 15.0811 19.1328L15.082 19.1309C15.0763 19.1517 15.0726 19.169 15.0723 19.1729C15.0497 19.2456 15.0648 19.2401 15.0781 19.21V24.0176C15.0763 23.9891 15.0725 23.9645 15.0615 23.9697C15.0595 23.9715 15.0698 24.004 15.0781 24.0371C15.0777 24.05 15.0782 24.0603 15.0781 24.0684L15.0791 24.0703C15.0794 24.0618 15.0792 24.0516 15.0791 24.041C15.0839 24.0599 15.0873 24.0787 15.0908 24.0908C15.0938 24.0964 15.0982 24.103 15.1025 24.1104C15.0994 24.1076 15.0969 24.1042 15.0938 24.1016C15.0948 24.1046 15.0947 24.1058 15.0947 24.1045C15.0953 24.1067 15.0952 24.1093 15.0957 24.1113C15.0971 24.1125 15.0982 24.114 15.0996 24.1152C15.1002 24.1159 15.1058 24.1205 15.1133 24.1279C15.1162 24.1327 15.1193 24.1372 15.1221 24.1416C15.1307 24.1473 15.1417 24.1536 15.1543 24.1621C15.2317 24.2142 15.2094 24.1951 15.1709 24.1719C15.1898 24.1766 15.2075 24.1817 15.2188 24.1846C15.2255 24.184 15.2329 24.183 15.2412 24.1826H20.3359C20.346 24.1805 20.3558 24.1783 20.3652 24.1758C20.371 24.1731 20.3768 24.1698 20.3828 24.167ZM20.374 24.1846C20.3391 24.2212 20.3472 24.2083 20.3672 24.1846C20.3697 24.1846 20.3719 24.1845 20.374 24.1846ZM15.1582 24.168C15.1618 24.1689 15.1654 24.17 15.1689 24.1709C15.1635 24.1676 15.1572 24.1653 15.1514 24.1621C15.1535 24.1642 15.156 24.1659 15.1582 24.168ZM15.1025 24.1504C15.1105 24.1533 15.1214 24.1567 15.1338 24.1602C15.1363 24.1635 15.1367 24.1666 15.1377 24.167C15.1428 24.1652 15.1435 24.162 15.1426 24.1572C15.1368 24.1542 15.1314 24.1509 15.126 24.1484C15.1275 24.1508 15.1285 24.1533 15.1299 24.1553C15.1247 24.1513 15.1198 24.1472 15.1152 24.1436C15.1097 24.1415 15.1047 24.1402 15.1006 24.1396C15.1015 24.1438 15.1019 24.1474 15.1025 24.1504ZM20.4043 24.1553C20.3978 24.1584 20.3916 24.1629 20.3848 24.166C20.4023 24.1475 20.4225 24.1293 20.4355 24.126C20.4238 24.1369 20.4124 24.1473 20.4043 24.1553ZM15.1406 24.1621C15.1383 24.1615 15.136 24.1608 15.1338 24.1602C15.1327 24.1587 15.1312 24.1572 15.1299 24.1553C15.1332 24.1578 15.1372 24.1595 15.1406 24.1621ZM15.1025 24.1104C15.1197 24.1254 15.1366 24.1414 15.1416 24.1533C15.1313 24.1434 15.1206 24.1352 15.1133 24.1279C15.1097 24.122 15.1059 24.1161 15.1025 24.1104ZM15.0889 24.1465C15.0896 24.1479 15.0942 24.1473 15.0996 24.1494C15.0985 24.1467 15.097 24.1439 15.0957 24.1406C15.0916 24.1411 15.0889 24.142 15.0889 24.1465ZM20.4395 24.1348C20.4417 24.1332 20.4433 24.133 20.4443 24.1318L20.4453 24.1299L20.4434 24.1289C20.442 24.1308 20.4408 24.1329 20.4395 24.1348ZM15.0801 24.0967C15.0792 24.094 15.078 24.0915 15.0771 24.0889C15.0548 24.0722 15.0449 24.0659 15.0801 24.0967ZM15.0791 24.041C15.0788 24.0397 15.0785 24.0384 15.0781 24.0371C15.0754 24.1292 15.0797 24.0894 15.0791 24.041ZM15.0869 19.124C15.0963 19.1517 15.0881 19.1874 15.0781 19.21C15.0778 19.2011 15.0788 19.1923 15.0781 19.1836C15.0781 19.1747 15.08 19.1538 15.0811 19.1357V19.1338C15.0826 19.1307 15.0851 19.1277 15.0869 19.124ZM15.0859 19.124C15.0844 19.1262 15.0836 19.1289 15.082 19.1309C15.083 19.1274 15.0839 19.1238 15.085 19.1201C15.0855 19.1214 15.0855 19.1227 15.0859 19.124ZM15.0869 19.124C15.0904 19.117 15.0953 19.1096 15.0996 19.1006C15.1529 18.995 15.1203 19.0773 15.0869 19.124ZM15.082 19.1152C15.0811 19.1176 15.08 19.1198 15.0791 19.1221C15.079 19.1206 15.0792 19.1195 15.0791 19.1182C15.0801 19.1172 15.081 19.1162 15.082 19.1152ZM15.126 19.0527H15.125C15.0872 19.0624 15.0965 19.0621 15.1211 19.0596C15.1301 19.0437 15.1286 19.0471 15.123 19.0596H15.125C15.1289 19.0562 15.1327 19.0525 15.1367 19.0488C15.1327 19.0498 15.1293 19.0519 15.126 19.0527ZM15.2178 19.0293C15.2078 19.0425 15.1718 19.0526 15.1416 19.0576C15.1524 19.0508 15.1651 19.0456 15.1758 19.0391C15.1875 19.037 15.2021 19.0321 15.2178 19.0293ZM20.2842 19.0273C20.2992 19.0273 20.326 19.0292 20.3496 19.0303C20.3565 19.0326 20.3642 19.0345 20.3721 19.0371C20.3357 19.0507 20.2941 19.0398 20.2734 19.0273C20.277 19.0272 20.2806 19.0275 20.2842 19.0273ZM20.3711 19.0283C20.374 19.0298 20.3768 19.0317 20.3799 19.0332C20.3812 19.0325 20.3825 19.032 20.3838 19.0312C20.3824 19.0299 20.3812 19.0286 20.3799 19.0273C20.3771 19.0277 20.3744 19.0282 20.3711 19.0283ZM20.3857 19.0273L20.3877 19.0283C20.389 19.0275 20.3913 19.0283 20.3926 19.0273C20.3909 19.0284 20.3883 19.0267 20.3857 19.0273ZM15.2051 19.0244C15.2095 19.0243 15.2141 19.0236 15.2188 19.0234C15.2188 19.0215 15.221 19.0196 15.2197 19.0176C15.2186 19.0154 15.2139 19.02 15.2051 19.0244ZM9.1582 13.8164C9.16743 13.7894 9.17628 13.7722 9.18262 13.7734C9.17509 13.788 9.16636 13.802 9.1582 13.8164ZM9.4375 13.498C9.57506 13.3666 9.46072 13.4922 9.42188 13.5127C9.42733 13.5081 9.43203 13.5026 9.4375 13.498ZM48.2686 13.373C48.2092 13.3399 48.2226 13.3496 48.2529 13.3672C48.2583 13.3687 48.2633 13.3716 48.2686 13.373ZM37.291 2.0791H3.10645C3.09727 2.0791 3.02772 2.07921 2.96875 2.08105C2.96565 2.0816 2.96231 2.08341 2.95898 2.08398C2.9373 2.08915 2.91032 2.09444 2.88867 2.09961C2.86927 2.1027 2.80015 2.1216 2.74707 2.1377C2.79447 2.11646 2.82822 2.09924 2.6875 2.17285C2.67598 2.18018 2.59066 2.22985 2.54199 2.25977C2.53348 2.26742 2.5247 2.27719 2.51367 2.28711C2.46123 2.33219 2.41793 2.38132 2.37109 2.42676C2.36928 2.42998 2.36828 2.43392 2.36621 2.4375L2.2627 2.61426L2.20117 2.84473C2.19969 2.85759 2.19824 2.87048 2.19824 2.88477V6.41211C2.39946 6.41337 2.60049 6.41504 2.80078 6.41504H41.915V2.95215C41.915 2.94055 41.9174 2.8284 41.9219 2.76953C41.9194 2.75906 41.9175 2.74859 41.915 2.73926C41.9115 2.72914 41.887 2.64975 41.8691 2.59473C41.8615 2.58171 41.8502 2.56665 41.8389 2.54688C41.8309 2.53544 41.7762 2.45213 41.7451 2.40625C41.7377 2.3987 41.7291 2.39039 41.7197 2.38086C41.6726 2.33089 41.6207 2.28973 41.5732 2.24512C41.5697 2.24332 41.5654 2.24229 41.5615 2.24023C41.4964 2.20911 41.4367 2.1779 41.377 2.1416C41.3173 2.12605 41.2574 2.11028 41.2031 2.09473C41.0796 2.05443 41.1059 2.06495 41.1533 2.07812C41.0959 2.07693 41.0285 2.07907 41.0127 2.0791C39.7724 2.06351 38.5313 2.0791 37.291 2.0791ZM41.1582 2.07812C41.1953 2.08826 41.2422 2.10027 41.2412 2.08984C41.2412 2.0831 41.2031 2.07919 41.1582 2.07812Z" fill="white"/>
</svg>
