<svg width="50" height="50" viewBox="0 0 50 50" fill="none" xmlns="http://www.w3.org/2000/svg">
<path d="M2.53135 34.0286C2.38354 33.587 2.2502 33.1407 2.13155 32.6904C2.08208 32.5025 1.96001 32.342 1.7922 32.2442C1.62439 32.1463 1.42458 32.1191 1.23673 32.1686C1.04887 32.2181 0.888365 32.3401 0.790513 32.5079C0.69266 32.6758 0.665479 32.8756 0.714948 33.0634C0.841808 33.5447 0.984364 34.0218 1.14239 34.4938C1.17225 34.5858 1.22005 34.671 1.28303 34.7445C1.34602 34.818 1.42293 34.8782 1.50934 34.9218C1.59574 34.9653 1.68992 34.9914 1.78644 34.9983C1.88296 35.0053 1.97989 34.993 2.07165 34.9623C2.16341 34.9316 2.24816 34.883 2.32103 34.8193C2.39389 34.7556 2.45342 34.6781 2.49616 34.5913C2.5389 34.5045 2.56402 34.4101 2.57006 34.3135C2.5761 34.2169 2.56295 34.1201 2.53135 34.0286ZM3.59034 36.6116C3.54806 36.5252 3.48918 36.448 3.41706 36.3844C3.34494 36.3207 3.26099 36.2719 3.17001 36.2407C3.07902 36.2095 2.98278 36.1966 2.88678 36.2025C2.79078 36.2085 2.6969 36.2334 2.6105 36.2757C2.52411 36.3179 2.44688 36.3768 2.38324 36.4489C2.3196 36.5211 2.27078 36.605 2.23958 36.696C2.20838 36.787 2.19541 36.8832 2.2014 36.9792C2.2074 37.0752 2.23224 37.1691 2.27452 37.2555C2.49304 37.7019 2.72611 38.141 2.97335 38.5721C3.07118 38.7382 3.23059 38.8591 3.41698 38.9085C3.60338 38.9578 3.80172 38.9317 3.96897 38.8358C4.13622 38.7398 4.25888 38.5818 4.31034 38.3959C4.36181 38.2101 4.33792 38.0115 4.24385 37.8432C4.01261 37.4399 3.79472 37.0292 3.59034 36.6116ZM0.96319 30.7689C1.0586 30.7567 1.15069 30.7259 1.23419 30.6782C1.31769 30.6304 1.39097 30.5667 1.44984 30.4906C1.50871 30.4146 1.55202 30.3277 1.5773 30.2349C1.60258 30.142 1.60933 30.0452 1.59717 29.9498L1.59356 29.9217C1.53587 29.4686 1.49245 29.0137 1.46339 28.5579C1.45108 28.364 1.36227 28.183 1.21649 28.0546C1.07071 27.9262 0.879904 27.861 0.686042 27.8733C0.49218 27.8856 0.311145 27.9744 0.182764 28.1202C0.0543818 28.266 -0.0108309 28.4568 0.00147166 28.6506C0.0322334 29.1339 0.078913 29.6238 0.140436 30.1069L0.14405 30.1349C0.156205 30.2303 0.187036 30.3224 0.23478 30.4059C0.282525 30.4894 0.346249 30.5627 0.422314 30.6216C0.498378 30.6804 0.585294 30.7237 0.678098 30.749C0.770902 30.7743 0.867776 30.7811 0.96319 30.7689ZM9.71739 44.1183C9.34885 43.8333 8.98958 43.5365 8.64014 43.2283C8.56801 43.1647 8.48405 43.1159 8.39306 43.0847C8.30207 43.0535 8.20583 43.0406 8.10984 43.0466C8.01384 43.0526 7.91997 43.0775 7.83358 43.1197C7.74719 43.162 7.66998 43.2209 7.60635 43.2931C7.54273 43.3652 7.49393 43.4491 7.46275 43.5401C7.43156 43.6311 7.41861 43.7274 7.42462 43.8234C7.43063 43.9194 7.45549 44.0132 7.49779 44.0996C7.54008 44.186 7.59897 44.2632 7.6711 44.3268C8.04422 44.656 8.42788 44.973 8.82149 45.2773C8.97518 45.3961 9.16977 45.449 9.36245 45.4243C9.55514 45.3997 9.73013 45.2995 9.84893 45.1458C9.96773 44.9921 10.0206 44.7975 9.99595 44.6048C9.97128 44.4121 9.87108 44.2371 9.71739 44.1183ZM0.688093 26.4469C0.784077 26.4535 0.880408 26.441 0.971574 26.4103C1.06274 26.3796 1.14695 26.3312 1.21939 26.2679C1.29183 26.2045 1.35107 26.1276 1.39372 26.0413C1.43638 25.9551 1.46161 25.8613 1.46798 25.7653C1.49929 25.3008 1.54586 24.8374 1.60762 24.3759C1.63339 24.1833 1.58162 23.9884 1.4637 23.8341C1.34577 23.6797 1.17136 23.5785 0.978815 23.5527C0.786274 23.527 0.591382 23.5787 0.437013 23.6966C0.282643 23.8146 0.181441 23.989 0.155671 24.1815C0.0897232 24.6749 0.0399569 25.1703 0.00645213 25.6669C-1.04214e-05 25.7628 0.0124949 25.8591 0.0432539 25.9503C0.0740129 26.0414 0.122423 26.1256 0.18572 26.198C0.249018 26.2705 0.325962 26.3297 0.412159 26.3724C0.498357 26.4151 0.592119 26.4404 0.688093 26.4468V26.4469ZM5.78829 40.1672C5.6704 40.0128 5.49601 39.9115 5.30347 39.8857C5.11094 39.8599 4.91603 39.9116 4.76163 40.0295C4.60722 40.1474 4.50597 40.3218 4.48015 40.5143C4.45433 40.7068 4.50605 40.9017 4.62393 41.0562C4.92585 41.4514 5.24054 41.8368 5.56749 42.2116C5.69521 42.358 5.87585 42.4476 6.06966 42.4608C6.26347 42.474 6.45457 42.4096 6.60093 42.2819C6.74729 42.1542 6.83692 41.9735 6.8501 41.7797C6.86328 41.5859 6.79892 41.3948 6.6712 41.2484C6.36521 40.8977 6.07075 40.5371 5.78829 40.1672ZM4.04835 15.4922C3.88049 15.3945 3.68068 15.3674 3.49287 15.417C3.30506 15.4666 3.14463 15.5887 3.04688 15.7566C2.79635 16.1869 2.5599 16.6253 2.3379 17.071C2.29503 17.1571 2.26953 17.2508 2.26287 17.3468C2.25622 17.4427 2.26852 17.5391 2.29909 17.6303C2.32966 17.7215 2.37789 17.8057 2.44104 17.8783C2.50418 17.9509 2.58099 18.0103 2.6671 18.0531C2.7532 18.096 2.8469 18.1215 2.94286 18.1282C3.03881 18.1348 3.13514 18.1225 3.22634 18.0919C3.31754 18.0614 3.40182 18.0131 3.47438 17.95C3.54694 17.8869 3.60635 17.81 3.64922 17.7239C3.85701 17.3068 4.07832 16.8965 4.3128 16.4937C4.41053 16.3258 4.43757 16.126 4.38798 15.9382C4.33839 15.7504 4.21622 15.5899 4.04835 15.4922ZM8.35137 11.303C8.49546 11.2846 8.6308 11.2237 8.74004 11.128C9.09069 10.8218 9.45117 10.527 9.8209 10.2442C9.89777 10.1859 9.96238 10.1131 10.011 10.0298C10.0596 9.94648 10.0913 9.8544 10.1043 9.75883C10.1172 9.66325 10.1112 9.56606 10.0865 9.47283C10.0618 9.3796 10.0189 9.29217 9.9603 9.21555C9.90171 9.13894 9.82856 9.07465 9.74506 9.02638C9.66156 8.97811 9.56934 8.94681 9.47371 8.93427C9.37808 8.92173 9.28091 8.92821 9.18779 8.95332C9.09466 8.97844 9.00742 9.0217 8.93106 9.08062C8.53602 9.38283 8.15089 9.69777 7.77627 10.025C7.658 10.1283 7.57608 10.2669 7.54258 10.4203C7.50909 10.5738 7.5258 10.7339 7.59026 10.8771C7.65472 11.0203 7.7635 11.139 7.90056 11.2157C8.03762 11.2924 8.1956 11.323 8.35137 11.303ZM20.0352 6.04685L20.0772 6.04138C20.5251 5.98435 20.9795 5.94079 21.4275 5.91198C21.4432 5.91094 21.4586 5.90944 21.4738 5.90749C21.6624 5.88311 21.8341 5.78637 21.9526 5.63772C22.0711 5.48907 22.1272 5.30016 22.1089 5.11092C22.0907 4.92168 21.9996 4.74694 21.8549 4.62364C21.7102 4.50033 21.5232 4.43813 21.3335 4.45017C20.855 4.48094 20.3701 4.52742 19.8872 4.58894L19.8501 4.59383C19.6574 4.61837 19.4824 4.71845 19.3634 4.87206C19.2445 5.02567 19.1915 5.22022 19.2161 5.41291C19.2406 5.60561 19.3407 5.78066 19.4943 5.89957C19.6479 6.01847 19.8425 6.07148 20.0352 6.04694V6.04685ZM24.2198 5.91501C24.6829 5.94587 25.1505 5.99255 25.6096 6.05368C25.8021 6.07932 25.997 6.02742 26.1513 5.90938C26.3056 5.79135 26.4067 5.61686 26.4323 5.42429C26.458 5.23172 26.4061 5.03686 26.288 4.88256C26.17 4.72827 25.9955 4.62718 25.8029 4.60154C25.3095 4.53596 24.814 4.48656 24.3173 4.4534C24.1235 4.44047 23.9324 4.50507 23.7863 4.63299C23.6401 4.7609 23.5507 4.94165 23.5377 5.13547C23.5248 5.3293 23.5894 5.52031 23.7173 5.66651C23.8453 5.8127 24.026 5.90209 24.2198 5.91501ZM15.8161 7.01598C15.8641 7.00987 15.9114 6.99901 15.9573 6.98356C16.3988 6.83542 16.845 6.70179 17.2952 6.58288C17.483 6.53328 17.6435 6.41111 17.7412 6.24323C17.8389 6.07535 17.866 5.87553 17.8164 5.68772C17.7668 5.4999 17.6446 5.33949 17.4767 5.24175C17.3088 5.14402 17.109 5.11698 16.9212 5.16658C16.44 5.29377 15.9631 5.43665 15.4912 5.59499C15.3189 5.65281 15.1743 5.7726 15.0854 5.93109C14.9966 6.08958 14.9698 6.27546 15.0103 6.4526C15.0508 6.62974 15.1557 6.7855 15.3046 6.88962C15.4535 6.99373 15.6358 7.03877 15.8161 7.01598ZM11.8718 8.79029C11.9676 8.77805 12.0601 8.74692 12.1438 8.69869C12.5469 8.46716 12.9575 8.24892 13.3749 8.0443C13.5493 7.95883 13.6827 7.80756 13.7456 7.62378C13.8085 7.44 13.7958 7.23876 13.7104 7.06432C13.6249 6.88989 13.4736 6.75655 13.2898 6.69364C13.1061 6.63073 12.9048 6.6434 12.7304 6.72887C12.2841 6.94762 11.8452 7.18092 11.4142 7.42838C11.2672 7.51271 11.1541 7.64535 11.094 7.80373C11.0338 7.96211 11.0305 8.13643 11.0844 8.29702C11.1384 8.4576 11.2463 8.59452 11.3899 8.68446C11.5335 8.77439 11.7037 8.8118 11.8718 8.79029ZM13.264 46.3435C12.8468 46.1355 12.4366 45.9139 12.0339 45.6792C11.8661 45.5819 11.6666 45.5552 11.4791 45.6048C11.2917 45.6545 11.1315 45.7765 11.0339 45.944C10.9362 46.1116 10.909 46.311 10.9581 46.4986C11.0073 46.6862 11.1289 46.8466 11.2962 46.9447C11.7264 47.1954 12.1647 47.4321 12.6103 47.6545C12.7841 47.7411 12.9853 47.7552 13.1695 47.6936C13.3537 47.632 13.5059 47.4997 13.5926 47.3258C13.6793 47.152 13.6933 46.9509 13.6317 46.7666C13.5701 46.5824 13.4378 46.4302 13.264 46.3435ZM1.26124 22.1524C1.35407 22.1777 1.45097 22.1845 1.54641 22.1723C1.64185 22.1601 1.73394 22.1291 1.81742 22.0813C1.9009 22.0335 1.97412 21.9696 2.0329 21.8935C2.09168 21.8173 2.13486 21.7303 2.15997 21.6374C2.28214 21.1874 2.41903 20.7416 2.57042 20.3006C2.60274 20.2094 2.61665 20.1126 2.61137 20.016C2.60608 19.9194 2.5817 19.8247 2.53963 19.7376C2.49755 19.6504 2.43862 19.5725 2.36625 19.5082C2.29387 19.444 2.20947 19.3947 2.11794 19.3633C2.02641 19.3319 1.92956 19.3189 1.83298 19.3251C1.7364 19.3313 1.64201 19.3566 1.55527 19.3995C1.46852 19.4424 1.39114 19.5021 1.3276 19.5751C1.26406 19.6481 1.21561 19.733 1.18507 19.8248C1.0232 20.2962 0.87683 20.7728 0.746198 21.2538C0.695338 21.4413 0.721027 21.6413 0.817614 21.8098C0.914202 21.9783 1.07378 22.1016 1.26124 22.1524ZM4.84483 14.3084C4.92097 14.3672 5.00795 14.4104 5.10079 14.4356C5.19362 14.4607 5.29051 14.4673 5.38591 14.455C5.48131 14.4428 5.57335 14.4118 5.65678 14.3639C5.74022 14.3161 5.81341 14.2523 5.87217 14.1761C6.1569 13.8073 6.45351 13.4479 6.76153 13.0984C6.82513 13.0262 6.87389 12.9422 6.90503 12.8512C6.93616 12.7602 6.94907 12.664 6.94302 12.568C6.93696 12.472 6.91205 12.3781 6.86972 12.2917C6.82739 12.2054 6.76846 12.1282 6.69629 12.0646C6.62413 12.001 6.54015 11.9522 6.44914 11.9211C6.35814 11.89 6.26189 11.877 6.16589 11.8831C6.06989 11.8892 5.97603 11.9141 5.88966 11.9564C5.80329 11.9987 5.7261 12.0577 5.66251 12.1298C5.33352 12.5032 5.01672 12.8872 4.7126 13.2812C4.65383 13.3573 4.61062 13.4443 4.58546 13.5371C4.5603 13.63 4.55366 13.7268 4.56594 13.8222C4.57822 13.9176 4.60917 14.0097 4.65702 14.0931C4.70487 14.1766 4.76869 14.2498 4.84483 14.3085V14.3084ZM44.8621 28.0281C44.6683 28.0148 44.4772 28.0791 44.3308 28.2067C44.1844 28.3343 44.0946 28.5149 44.0813 28.7087C44.0496 29.1709 44.0021 29.6383 43.9399 30.0979C43.9271 30.1932 43.9331 30.2902 43.9576 30.3832C43.9822 30.4762 44.0249 30.5634 44.0831 30.6399C44.1414 30.7164 44.2142 30.7807 44.2974 30.8291C44.3805 30.8775 44.4724 30.909 44.5677 30.9219C44.663 30.9348 44.7599 30.9288 44.8529 30.9042C44.9459 30.8797 45.0332 30.837 45.1097 30.7787C45.1862 30.7204 45.2505 30.6476 45.2989 30.5645C45.3473 30.4814 45.3788 30.3895 45.3917 30.2942C45.4581 29.8028 45.5089 29.303 45.5427 28.8088C45.5493 28.7128 45.5369 28.6165 45.5062 28.5253C45.4756 28.4342 45.4273 28.3499 45.3641 28.2774C45.3009 28.2049 45.2241 28.1456 45.1379 28.1028C45.0518 28.06 44.9581 28.0346 44.8621 28.028V28.0281ZM42.8723 36.4192C42.6985 36.3324 42.4974 36.3182 42.3131 36.3797C42.1289 36.4412 41.9766 36.5734 41.8897 36.7471C41.6815 37.1641 41.4597 37.5741 41.2247 37.9767C41.129 38.1443 41.1033 38.3429 41.1533 38.5294C41.2032 38.7158 41.3247 38.875 41.4914 38.9724C41.6581 39.0697 41.8565 39.0973 42.0434 39.0491C42.2304 39.001 42.3907 38.881 42.4896 38.7152C42.7407 38.2852 42.9777 37.8472 43.2003 37.4018C43.2433 37.3157 43.2689 37.222 43.2757 37.1261C43.2825 37.0301 43.2703 36.9338 43.2398 36.8425C43.2094 36.7513 43.1612 36.6669 43.0982 36.5943C43.0351 36.5216 42.9583 36.4621 42.8723 36.4192ZM45.4104 24.3382L45.4032 24.2819C45.3782 24.0896 45.278 23.915 45.1245 23.7965C44.971 23.678 44.7768 23.6252 44.5844 23.6497L44.5824 23.65C44.3898 23.675 44.2151 23.7756 44.0966 23.9295C43.9781 24.0833 43.9256 24.278 43.9506 24.4706L43.9576 24.525C44.0164 24.9872 44.0604 25.4511 44.0895 25.9161C44.0954 26.0121 44.1202 26.106 44.1625 26.1924C44.2048 26.2788 44.2636 26.3561 44.3358 26.4197C44.4079 26.4834 44.4919 26.5322 44.5828 26.5634C44.6738 26.5947 44.7701 26.6076 44.8661 26.6016C44.8822 26.6007 44.898 26.599 44.9138 26.597C45.0982 26.5734 45.2667 26.4804 45.3851 26.337C45.5036 26.1937 45.563 26.0107 45.5515 25.8251C45.5208 25.3317 45.4733 24.8322 45.4104 24.3382ZM44.2835 32.3218C44.1907 32.2965 44.0938 32.2896 43.9984 32.3017C43.903 32.3138 43.8109 32.3446 43.7273 32.3923C43.6438 32.44 43.5705 32.5037 43.5116 32.5798C43.4527 32.6559 43.4094 32.7428 43.3841 32.8356C43.2613 33.2854 43.1238 33.731 42.9718 34.1718C42.9404 34.2627 42.9273 34.3589 42.9331 34.455C42.9389 34.551 42.9636 34.6449 43.0057 34.7314C43.0478 34.8178 43.1065 34.8952 43.1785 34.9589C43.2505 35.0227 43.3344 35.0717 43.4253 35.1031C43.6089 35.1664 43.8102 35.1542 43.9848 35.0692C44.0713 35.0271 44.1487 34.9683 44.2124 34.8963C44.2762 34.8243 44.3252 34.7405 44.3565 34.6495C44.519 34.1784 44.666 33.702 44.7973 33.2211C44.8226 33.1283 44.8294 33.0315 44.8173 32.936C44.8051 32.8406 44.7743 32.7485 44.7266 32.665C44.6789 32.5815 44.6152 32.5082 44.5392 32.4493C44.4631 32.3904 44.3762 32.347 44.2834 32.3217L44.2835 32.3218ZM39.1641 0C36.2912 0.00325671 33.5369 1.14594 31.5055 3.17735C29.4741 5.20877 28.3314 7.96303 28.3281 10.8359L28.3283 10.8564C26.5536 10.2552 24.6921 9.94973 22.8184 9.9521C13.3175 9.9521 5.5879 17.6813 5.5879 27.1815C5.5879 36.6824 13.3175 44.4119 22.8184 44.4119C32.3188 44.4119 40.0479 36.6824 40.0479 27.1815C40.0502 25.3077 39.7447 23.4462 39.1436 21.6715L39.1641 21.6718C42.0379 21.6718 44.7941 20.5301 46.8262 18.498C48.8584 16.4659 50 13.7097 50 10.8359C50 7.96203 48.8584 5.20588 46.8262 3.17376C44.7941 1.14163 42.0379 0 39.1641 0ZM22.8184 42.9471C14.1252 42.9471 7.05274 35.8746 7.05274 27.1815C7.05274 18.4889 14.1252 11.4169 22.8184 11.4169C24.7433 11.414 26.6523 11.7664 28.4493 12.4566C28.7991 14.7432 29.8699 16.8585 31.5057 18.4942C33.1414 20.1299 35.2567 21.2007 37.5434 21.5505C38.2335 23.3475 38.586 25.2565 38.583 27.1815C38.583 35.8746 31.511 42.9471 22.8184 42.9471ZM39.1641 20.2069C37.3106 20.2069 35.4988 19.6573 33.9578 18.6276C32.4167 17.5979 31.2156 16.1344 30.5063 14.422C29.797 12.7097 29.6114 10.8255 29.973 9.00769C30.3346 7.18988 31.2271 5.52012 32.5377 4.20955C33.8483 2.89899 35.518 2.00648 37.3359 1.6449C39.1537 1.28331 41.0379 1.46889 42.7502 2.17817C44.4626 2.88744 45.9261 4.08855 46.9558 5.62961C47.9855 7.17067 48.5352 8.98247 48.5352 10.8359C48.5323 13.3204 47.5441 15.7023 45.7873 17.4591C44.0305 19.2159 41.6486 20.2041 39.1641 20.2069ZM42.4355 8.80709V6.29489H43.3145C43.4106 6.29489 43.5059 6.27595 43.5947 6.23914C43.6836 6.20233 43.7643 6.14838 43.8324 6.08037C43.9004 6.01236 43.9543 5.93162 43.9911 5.84276C44.0279 5.7539 44.0469 5.65866 44.0469 5.56247C44.0469 5.46629 44.0279 5.37105 43.9911 5.28219C43.9543 5.19333 43.9004 5.11259 43.8324 5.04458C43.7643 4.97656 43.6836 4.92261 43.5947 4.88581C43.5059 4.849 43.4106 4.83006 43.3145 4.83006H35.0137C34.8194 4.83006 34.6331 4.90722 34.4958 5.04458C34.3584 5.18193 34.2812 5.36822 34.2812 5.56247C34.2812 5.75672 34.3584 5.94302 34.4958 6.08037C34.6331 6.21773 34.8194 6.29489 35.0137 6.29489H35.8926V8.80709C35.8931 9.10707 35.9723 9.40167 36.1223 9.66144C36.2724 9.92121 36.488 10.137 36.7476 10.2874L37.6984 10.8359L36.7476 11.3844C36.4879 11.5347 36.2723 11.7505 36.1223 12.0103C35.9723 12.2701 35.893 12.5647 35.8926 12.8647V15.3769H35.0137C34.8194 15.3769 34.6331 15.454 34.4958 15.5914C34.3584 15.7288 34.2812 15.915 34.2812 16.1093C34.2812 16.3035 34.3584 16.4898 34.4958 16.6272C34.6331 16.7646 34.8194 16.8417 35.0137 16.8417H43.3145C43.5087 16.8417 43.695 16.7646 43.8324 16.6272C43.9697 16.4898 44.0469 16.3035 44.0469 16.1093C44.0469 15.915 43.9697 15.7288 43.8324 15.5914C43.695 15.454 43.5087 15.3769 43.3145 15.3769H42.4355V12.8647C42.4351 12.5647 42.3559 12.2701 42.2059 12.0104C42.0558 11.7506 41.8402 11.5348 41.5806 11.3845L40.6297 10.8359L41.5806 10.2874C41.8402 10.137 42.0558 9.92122 42.2058 9.66145C42.3559 9.40168 42.4351 9.10707 42.4355 8.80709ZM40.8485 12.6533L40.8486 12.6534C40.8857 12.6748 40.9165 12.7056 40.9379 12.7427C40.9593 12.7798 40.9706 12.8219 40.9707 12.8647V15.3769H37.3574V12.8647C37.3575 12.8218 37.3688 12.7798 37.3902 12.7427C37.4116 12.7056 37.4424 12.6747 37.4795 12.6533L39.1641 11.6816L40.8485 12.6533ZM40.9707 8.80709C40.9706 8.84995 40.9593 8.89205 40.9379 8.92917C40.9164 8.96629 40.8856 8.99713 40.8485 9.01861L39.1641 9.99028L37.4796 9.01861C37.4425 8.99713 37.4117 8.96628 37.3903 8.92917C37.3688 8.89205 37.3575 8.84995 37.3574 8.80709V6.29489H40.9707V8.80709ZM28.1462 19.9201C28.1462 19.7259 28.069 19.5396 27.9317 19.4022C27.7943 19.2649 27.608 19.1877 27.4138 19.1877H18.2224C18.0281 19.1877 17.8418 19.2649 17.7045 19.4022C17.5671 19.5396 17.4899 19.7259 17.4899 19.9201C17.4899 20.1144 17.5671 20.3007 17.7045 20.438C17.8418 20.5754 18.0281 20.6525 18.2224 20.6525H19.919C20.9236 20.6539 21.8951 21.0111 22.6613 21.6608C23.4275 22.3105 23.9387 23.2106 24.1043 24.2013H18.2223C18.1261 24.2013 18.0308 24.2203 17.942 24.2571C17.8531 24.2939 17.7724 24.3479 17.7044 24.4159C17.6364 24.4839 17.5824 24.5646 17.5456 24.6535C17.5088 24.7423 17.4898 24.8376 17.4898 24.9338C17.4898 25.03 17.5088 25.1252 17.5456 25.2141C17.5824 25.3029 17.6364 25.3837 17.7044 25.4517C17.7724 25.5197 17.8531 25.5736 17.942 25.6104C18.0308 25.6472 18.1261 25.6662 18.2223 25.6662H24.0907C23.9096 26.6407 23.3935 27.5212 22.6317 28.1554C21.8699 28.7896 20.9104 29.1374 19.9191 29.1388H18.2983C18.2038 29.1388 18.1102 29.1571 18.0226 29.1927L17.974 29.2125C17.8634 29.2574 17.7654 29.3288 17.6886 29.4203C17.6118 29.5118 17.5586 29.6207 17.5336 29.7375C17.5085 29.8543 17.5124 29.9754 17.545 30.0904C17.5775 30.2053 17.6376 30.3106 17.7201 30.3969L24.3755 37.3648C24.5097 37.5052 24.6941 37.5866 24.8884 37.5911C25.0826 37.5955 25.2706 37.5227 25.411 37.3885C25.5515 37.2543 25.6329 37.0698 25.6374 36.8756C25.6418 36.6814 25.5689 36.4934 25.4348 36.353L19.9432 30.6036C21.3187 30.5958 22.6453 30.0923 23.6796 29.1853C24.7138 28.2784 25.3862 27.0289 25.5734 25.6661H27.4138C27.608 25.6661 27.7943 25.5889 27.9317 25.4516C28.069 25.3142 28.1462 25.1279 28.1462 24.9337C28.1462 24.7394 28.069 24.5531 27.9317 24.4158C27.7943 24.2784 27.608 24.2013 27.4138 24.2013H25.5832C25.4154 22.8335 24.7578 21.5728 23.732 20.6525H27.4138C27.608 20.6525 27.7943 20.5754 27.9317 20.438C28.069 20.3007 28.1462 20.1144 28.1462 19.9201ZM33.3838 45.7616C32.9804 45.9926 32.5695 46.2103 32.1518 46.4143C31.9772 46.4996 31.8436 46.6507 31.7805 46.8344C31.7173 47.0181 31.7297 47.2194 31.815 47.394C31.9002 47.5685 32.0513 47.7021 32.2351 47.7652C32.4188 47.8284 32.6201 47.816 32.7946 47.7307C33.2411 47.5125 33.6804 47.2797 34.1117 47.0327C34.1962 46.9854 34.2704 46.9219 34.3302 46.8457C34.3899 46.7696 34.434 46.6824 34.4598 46.5891C34.4857 46.4958 34.4928 46.3983 34.4807 46.3023C34.4686 46.2063 34.4377 46.1136 34.3896 46.0296C34.3415 45.9456 34.2772 45.872 34.2005 45.813C34.1237 45.754 34.0361 45.7108 33.9426 45.6858C33.849 45.6609 33.7515 45.6548 33.6556 45.6678C33.5597 45.6808 33.4673 45.7127 33.3838 45.7616ZM25.488 48.4035L25.474 48.4052C25.0163 48.4635 24.5568 48.5072 24.0963 48.5364C24 48.542 23.9057 48.5665 23.8188 48.6087C23.732 48.6508 23.6544 48.7097 23.5904 48.7819C23.5264 48.8542 23.4773 48.9383 23.446 49.0296C23.4146 49.1209 23.4016 49.2174 23.4077 49.3137C23.4137 49.41 23.4388 49.5042 23.4814 49.5908C23.524 49.6774 23.5833 49.7547 23.6558 49.8183C23.7284 49.882 23.8128 49.9306 23.9042 49.9615C23.9957 49.9924 24.0923 50.0049 24.1886 49.9983C24.6801 49.9672 25.1705 49.9205 25.6591 49.8584L25.673 49.8565C25.7685 49.8443 25.8605 49.8135 25.944 49.7658C26.0276 49.718 26.1008 49.6543 26.1597 49.5783C26.2186 49.5022 26.2619 49.4153 26.2872 49.3225C26.3125 49.2297 26.3192 49.1328 26.3071 49.0374C26.2949 48.942 26.2641 48.8499 26.2164 48.7664C26.1686 48.6829 26.1049 48.6096 26.0289 48.5508C25.9528 48.4919 25.8659 48.4486 25.7731 48.4233C25.6803 48.398 25.5834 48.3913 25.488 48.4035ZM40.6898 40.1613C40.5362 40.0425 40.3416 39.9895 40.149 40.0141C39.9563 40.0386 39.7812 40.1387 39.6623 40.2923C39.3771 40.6607 39.0801 41.0198 38.7717 41.369C38.7062 41.4408 38.6556 41.5249 38.623 41.6164C38.5903 41.7079 38.5762 41.805 38.5814 41.9021C38.5866 41.9991 38.6111 42.0941 38.6534 42.1816C38.6957 42.2691 38.755 42.3472 38.8278 42.4116C38.9007 42.4759 38.9855 42.5251 39.0776 42.5563C39.1696 42.5875 39.2669 42.6001 39.3638 42.5933C39.4608 42.5865 39.5554 42.5605 39.6422 42.5168C39.729 42.4731 39.8062 42.4126 39.8693 42.3388C40.1988 41.9659 40.5161 41.5824 40.8207 41.189C40.8796 41.1129 40.9229 41.026 40.9482 40.9332C40.9735 40.8404 40.9802 40.7435 40.9681 40.6481C40.9559 40.5527 40.9251 40.4606 40.8774 40.3771C40.8296 40.2936 40.7659 40.2203 40.6898 40.1614V40.1613ZM29.5679 47.4718C29.1262 47.6194 28.6798 47.7525 28.2294 47.8709C28.0493 47.9179 27.8939 48.0317 27.7948 48.1892C27.6956 48.3467 27.6601 48.536 27.6955 48.7188C27.7309 48.9015 27.8345 49.0639 27.9853 49.1729C28.1361 49.282 28.3227 49.3296 28.5073 49.306C28.5392 49.3019 28.5707 49.2958 28.6018 49.2877C29.0831 49.1611 29.5602 49.0188 30.0323 48.8611C30.1238 48.8308 30.2083 48.7827 30.2812 48.7197C30.354 48.6566 30.4137 48.5798 30.4568 48.4937C30.4999 48.4075 30.5256 48.3137 30.5324 48.2176C30.5392 48.1215 30.527 48.025 30.4965 47.9337C30.4659 47.8423 30.4176 47.7579 30.3544 47.6852C30.2912 47.6125 30.2142 47.553 30.128 47.5101C30.0417 47.4672 29.9478 47.4417 29.8517 47.4352C29.7556 47.4286 29.6592 47.4411 29.5679 47.4718ZM21.304 48.5299C20.8395 48.4982 20.3761 48.4514 19.9146 48.3894C19.8189 48.3759 19.7215 48.3815 19.628 48.4057C19.5345 48.43 19.4468 48.4726 19.3698 48.5309C19.2928 48.5892 19.2281 48.6622 19.1795 48.7457C19.1308 48.8291 19.0991 48.9214 19.0863 49.0171C19.0734 49.1128 19.0796 49.2101 19.1045 49.3035C19.1294 49.3968 19.1725 49.4843 19.2314 49.5609C19.2902 49.6375 19.3636 49.7017 19.4474 49.7498C19.5312 49.7979 19.6236 49.8289 19.7194 49.8412C20.2128 49.9075 20.7082 49.9575 21.2048 49.9914C21.3008 49.9979 21.3971 49.9854 21.4882 49.9547C21.5794 49.924 21.6636 49.8757 21.736 49.8124C21.8085 49.7492 21.8678 49.6723 21.9105 49.5861C21.9533 49.4999 21.9786 49.4062 21.9852 49.3102C21.9917 49.2143 21.9792 49.1179 21.9485 49.0268C21.9178 48.9356 21.8695 48.8514 21.8062 48.779C21.743 48.7065 21.666 48.6472 21.5799 48.6045C21.4937 48.5617 21.4 48.5364 21.304 48.5299ZM36.7903 43.3365C36.4394 43.6423 36.0786 43.9366 35.7085 44.2188C35.632 44.2772 35.5678 44.35 35.5194 44.4331C35.4711 44.5163 35.4396 44.6082 35.4267 44.7035C35.4139 44.7988 35.4199 44.8957 35.4445 44.9887C35.4692 45.0817 35.5118 45.1689 35.5702 45.2454C35.6285 45.3219 35.7013 45.3862 35.7845 45.4345C35.8676 45.4829 35.9595 45.5144 36.0548 45.5272C36.1502 45.5401 36.2471 45.534 36.3401 45.5094C36.4331 45.4848 36.5203 45.4421 36.5968 45.3838C36.9922 45.0821 37.3778 44.7676 37.7528 44.4409C37.826 44.3779 37.886 44.3011 37.9294 44.2148C37.9727 44.1285 37.9986 44.0345 38.0055 43.9382C38.0124 43.8419 38.0002 43.7452 37.9696 43.6536C37.939 43.5621 37.8905 43.4774 37.8271 43.4047C37.7637 43.3319 37.6865 43.2723 37.5999 43.2295C37.5134 43.1867 37.4193 43.1613 37.3229 43.155C37.2266 43.1487 37.1299 43.1615 37.0385 43.1926C36.9472 43.2238 36.8628 43.2727 36.7904 43.3366L36.7903 43.3365ZM17.1765 47.8353C16.7266 47.7129 16.2809 47.5757 15.84 47.424C15.7487 47.3911 15.6518 47.3766 15.5549 47.3815C15.4579 47.3864 15.3629 47.4105 15.2754 47.4524C15.1878 47.4944 15.1095 47.5533 15.0449 47.6257C14.9803 47.6982 14.9308 47.7827 14.8992 47.8745C14.8676 47.9663 14.8545 48.0634 14.8608 48.1603C14.8671 48.2571 14.8925 48.3518 14.9357 48.4387C14.9788 48.5257 15.0389 48.6032 15.1122 48.6667C15.1856 48.7302 15.2709 48.7786 15.3631 48.8088C15.8344 48.9711 16.3109 49.1178 16.7919 49.2487C16.8851 49.2751 16.9825 49.2827 17.0787 49.2712C17.1748 49.2597 17.2677 49.2292 17.352 49.1816C17.4363 49.1339 17.5103 49.0701 17.5697 48.9936C17.6292 48.9172 17.6729 48.8297 17.6983 48.7363C17.7237 48.6429 17.7303 48.5453 17.7178 48.4493C17.7053 48.3533 17.6739 48.2607 17.6254 48.1769C17.5768 48.0932 17.5122 48.0198 17.4351 47.9612C17.3581 47.9025 17.2702 47.8598 17.1765 47.8353Z" fill="black"/>
</svg>
