<svg width="51" height="31" viewBox="0 0 51 31" fill="none" xmlns="http://www.w3.org/2000/svg">
<path fill-rule="evenodd" clip-rule="evenodd" d="M48.6819 0C49.2967 2.57985e-06 49.8863 0.24421 50.3211 0.678943C50.7558 1.11368 51 1.70334 51 2.31815V9.2727C50.9977 9.68085 50.8865 10.081 50.6778 10.4318C50.8865 10.7826 50.9977 11.1828 51 11.591V18.5455C50.9977 18.9536 50.8865 19.3538 50.6778 19.7045C50.8865 20.0553 50.9977 20.4555 51 20.8637V27.8182C51 28.433 50.7558 29.0227 50.3211 29.4574C49.8863 29.8922 49.2967 30.1364 48.6819 30.1364H33.6136C33.2055 30.134 32.8054 30.0228 32.4546 29.8142C32.1038 30.0228 31.7036 30.134 31.2955 30.1364H16.2272C15.6124 30.1363 15.0228 29.8921 14.588 29.4574C14.1533 29.0227 13.9091 28.433 13.9091 27.8182H31.2955V25.5001H20.8636V23.1818H31.2955V20.8637H22.0228V18.5455H31.2955V16.2273H23.1818V13.9091H31.2955V11.591C31.2978 11.1828 31.409 10.7826 31.6176 10.4318C31.409 10.081 31.2978 9.68085 31.2955 9.2727V2.31815C31.2955 1.70334 31.5397 1.11368 31.9744 0.678943C32.4092 0.244209 32.9988 6.66898e-06 33.6136 0H48.6819ZM33.6136 25.5001V27.8182H48.6819V25.5001H33.6136ZM33.6136 20.8637V23.1818H48.6819V20.8637H33.6136ZM33.6136 16.2273V18.5455H48.6819V16.2273H33.6136ZM33.6136 11.591V13.9091H48.6819V11.591H33.6136ZM33.6136 6.95455V9.2727H48.6819V6.95455H33.6136ZM33.6136 2.31815V4.6364H48.6819V2.31815H33.6136Z" fill="black"/>
<path fill-rule="evenodd" clip-rule="evenodd" d="M8.39669 7.15501C10.4202 6.7525 12.5177 6.95908 14.4239 7.74863C16.33 8.53819 17.9593 9.87524 19.1056 11.5907C20.2519 13.3062 20.8636 15.3232 20.8636 17.3864C20.8603 20.152 19.7601 22.8034 17.8045 24.759C15.8489 26.7146 13.1975 27.8148 10.4318 27.8182C8.3686 27.8182 6.35169 27.2064 4.63618 26.0601C2.92068 24.9139 1.58363 23.2846 0.794071 21.3784C0.00452173 19.4723 -0.202063 17.3748 0.200447 15.3512C0.602961 13.3277 1.59653 11.4689 3.05545 10.01C4.51436 8.55109 6.37311 7.55752 8.39669 7.15501ZM13.5367 9.89031C12.0542 9.27623 10.4228 9.11564 8.84896 9.42869C7.27507 9.74176 5.82936 10.5145 4.69465 11.6492C3.55994 12.7839 2.78709 14.2296 2.47403 15.8035C2.16097 17.3774 2.32165 19.0088 2.93575 20.4914C3.54985 21.974 4.58986 23.2411 5.92414 24.1326C7.25841 25.0242 8.8271 25.5001 10.4318 25.5001C12.5829 25.4976 14.6453 24.642 16.1663 23.1209C17.6874 21.5998 18.543 19.5375 18.5455 17.3864C18.5455 15.7817 18.0696 14.213 17.1781 12.8787C16.2865 11.5444 15.0193 10.5044 13.5367 9.89031Z" fill="black"/>
</svg>
