<svg width="34" height="22" viewBox="0 0 34 22" fill="none" xmlns="http://www.w3.org/2000/svg">
<path d="M1.46411 10.3911C1.46411 10.5419 1.52407 10.6864 1.63085 10.793C1.73762 10.8996 1.88248 10.9594 2.03349 10.9594H11.0622V22H9.59809V12.9889C9.59809 12.8382 9.53813 12.6936 9.43136 12.5871C9.32458 12.4805 9.17972 12.4207 9.02871 12.4207H2.03349C1.88248 12.4207 1.73762 12.4805 1.63085 12.5871C1.52407 12.6936 1.46411 12.8382 1.46411 12.9889V22H0V0H1.46411V10.3911Z" fill="#A85916"/>
<path d="M17.8134 22H16.0239V4.70849H17.8134V22Z" fill="#A85916"/>
<path d="M34 22H32.5359V12.9889C32.5359 12.8382 32.4759 12.6936 32.3692 12.5871C32.2624 12.4805 32.1175 12.4207 31.9665 12.4207H24.9713C24.8203 12.4207 24.6754 12.4805 24.5686 12.5871C24.4619 12.6936 24.4019 12.8382 24.4019 12.9889V22H22.9378V10.9594H31.9665C32.1175 10.9594 32.2624 10.8996 32.3692 10.793C32.4759 10.6864 32.5359 10.5419 32.5359 10.3911V0H34V22Z" fill="#A85916"/>
<path d="M28.0622 3.57196H5.9378V1.29889H28.0622V3.57196Z" fill="#A85916"/>
</svg>
